<mxfile host="app.diagrams.net" agent="Mozilla/5.0 (Windows NT 10.0; Win64; x64) AppleWebKit/537.36 (KHTML, like Gecko) Chrome/141.0.0.0 Safari/537.36" version="27.0.5">
  <diagram name="Страница — 1" id="-K5M7E3bF1IKvgw-pDKH">
    <mxGraphModel dx="1395" dy="888" grid="1" gridSize="10" guides="1" tooltips="1" connect="1" arrows="1" fold="1" page="1" pageScale="1" pageWidth="1100" pageHeight="850" math="0" shadow="0">
      <root>
        <mxCell id="0" />
        <mxCell id="1" parent="0" />
        <mxCell id="XTBzalapVHw_kVNB5Hhz-1" value="" style="endArrow=none;dashed=1;html=1;rounded=0;" edge="1" parent="1">
          <mxGeometry width="50" height="50" relative="1" as="geometry">
            <mxPoint x="400" y="910" as="sourcePoint" />
            <mxPoint x="400" y="100" as="targetPoint" />
          </mxGeometry>
        </mxCell>
        <mxCell id="XTBzalapVHw_kVNB5Hhz-2" value="Пользователь" style="text;align=center;fontStyle=1;verticalAlign=middle;spacingLeft=3;spacingRight=3;strokeColor=none;rotatable=0;points=[[0,0.5],[1,0.5]];portConstraint=eastwest;html=1;" vertex="1" parent="1">
          <mxGeometry x="270" y="100" width="80" height="26" as="geometry" />
        </mxCell>
        <mxCell id="XTBzalapVHw_kVNB5Hhz-3" value="Система генеалогического дерева" style="text;align=center;fontStyle=1;verticalAlign=middle;spacingLeft=3;spacingRight=3;strokeColor=none;rotatable=0;points=[[0,0.5],[1,0.5]];portConstraint=eastwest;html=1;" vertex="1" parent="1">
          <mxGeometry x="490" y="100" width="80" height="26" as="geometry" />
        </mxCell>
        <mxCell id="XTBzalapVHw_kVNB5Hhz-4" value="" style="ellipse;html=1;shape=startState;fillColor=#000000;strokeColor=none;" vertex="1" parent="1">
          <mxGeometry x="280" y="140" width="30" height="30" as="geometry" />
        </mxCell>
        <mxCell id="XTBzalapVHw_kVNB5Hhz-5" value="" style="edgeStyle=orthogonalEdgeStyle;html=1;verticalAlign=bottom;endArrow=open;endSize=8;strokeColor=#404040;rounded=0;" edge="1" parent="1" source="XTBzalapVHw_kVNB5Hhz-4">
          <mxGeometry relative="1" as="geometry">
            <mxPoint x="295" y="230" as="targetPoint" />
          </mxGeometry>
        </mxCell>
        <mxCell id="XTBzalapVHw_kVNB5Hhz-6" value="Добавление связи между персонами" style="rounded=1;whiteSpace=wrap;html=1;" vertex="1" parent="1">
          <mxGeometry x="235" y="230" width="120" height="60" as="geometry" />
        </mxCell>
        <mxCell id="XTBzalapVHw_kVNB5Hhz-7" value="" style="endArrow=open;endFill=1;endSize=12;html=1;rounded=0;exitX=1;exitY=0.5;exitDx=0;exitDy=0;" edge="1" parent="1" source="XTBzalapVHw_kVNB5Hhz-6">
          <mxGeometry width="160" relative="1" as="geometry">
            <mxPoint x="360" y="270" as="sourcePoint" />
            <mxPoint x="480" y="260" as="targetPoint" />
          </mxGeometry>
        </mxCell>
        <mxCell id="XTBzalapVHw_kVNB5Hhz-8" value="&lt;span style=&quot;line-height: 107%;&quot;&gt;Отображает пустую форму для ввода данных&amp;nbsp;&lt;/span&gt;" style="rounded=1;whiteSpace=wrap;html=1;strokeColor=default;align=center;verticalAlign=middle;fontFamily=Helvetica;fontSize=12;fontColor=default;fillColor=default;" vertex="1" parent="1">
          <mxGeometry x="480" y="230" width="120" height="60" as="geometry" />
        </mxCell>
        <mxCell id="XTBzalapVHw_kVNB5Hhz-9" value="" style="endArrow=open;endFill=1;endSize=12;html=1;rounded=0;exitX=0;exitY=0.75;exitDx=0;exitDy=0;entryX=1;entryY=0.25;entryDx=0;entryDy=0;" edge="1" parent="1" source="XTBzalapVHw_kVNB5Hhz-8" target="XTBzalapVHw_kVNB5Hhz-10">
          <mxGeometry width="160" relative="1" as="geometry">
            <mxPoint x="365" y="270" as="sourcePoint" />
            <mxPoint x="370" y="330" as="targetPoint" />
          </mxGeometry>
        </mxCell>
        <mxCell id="XTBzalapVHw_kVNB5Hhz-10" value="Вводит данные о 1 персоне" style="rounded=1;whiteSpace=wrap;html=1;" vertex="1" parent="1">
          <mxGeometry x="235" y="320" width="120" height="60" as="geometry" />
        </mxCell>
        <mxCell id="XTBzalapVHw_kVNB5Hhz-11" value="" style="rhombus;whiteSpace=wrap;html=1;" vertex="1" parent="1">
          <mxGeometry x="520" y="320" width="80" height="80" as="geometry" />
        </mxCell>
        <mxCell id="XTBzalapVHw_kVNB5Hhz-12" value="" style="endArrow=open;endFill=1;endSize=12;html=1;rounded=0;exitX=1;exitY=0.661;exitDx=0;exitDy=0;entryX=0;entryY=0.5;entryDx=0;entryDy=0;exitPerimeter=0;" edge="1" parent="1" source="XTBzalapVHw_kVNB5Hhz-10" target="XTBzalapVHw_kVNB5Hhz-11">
          <mxGeometry width="160" relative="1" as="geometry">
            <mxPoint x="490" y="285" as="sourcePoint" />
            <mxPoint x="365" y="345" as="targetPoint" />
          </mxGeometry>
        </mxCell>
        <mxCell id="XTBzalapVHw_kVNB5Hhz-13" value="" style="endArrow=open;endFill=1;endSize=12;html=1;rounded=0;exitX=0.5;exitY=1;exitDx=0;exitDy=0;entryX=1;entryY=0.5;entryDx=0;entryDy=0;" edge="1" parent="1" source="XTBzalapVHw_kVNB5Hhz-11" target="XTBzalapVHw_kVNB5Hhz-25">
          <mxGeometry width="160" relative="1" as="geometry">
            <mxPoint x="500" y="295" as="sourcePoint" />
            <mxPoint x="790" y="450" as="targetPoint" />
            <Array as="points">
              <mxPoint x="560" y="440" />
              <mxPoint x="450" y="440" />
            </Array>
          </mxGeometry>
        </mxCell>
        <mxCell id="XTBzalapVHw_kVNB5Hhz-14" value="[Все данные указаны корректно]" style="text;html=1;align=center;verticalAlign=middle;whiteSpace=wrap;rounded=0;" vertex="1" parent="1">
          <mxGeometry x="420" y="440" width="190" height="30" as="geometry" />
        </mxCell>
        <mxCell id="XTBzalapVHw_kVNB5Hhz-15" value="" style="endArrow=open;endFill=1;endSize=12;html=1;rounded=0;exitX=1;exitY=0.5;exitDx=0;exitDy=0;entryX=0.558;entryY=-0.017;entryDx=0;entryDy=0;entryPerimeter=0;" edge="1" parent="1" source="XTBzalapVHw_kVNB5Hhz-11" target="XTBzalapVHw_kVNB5Hhz-17">
          <mxGeometry width="160" relative="1" as="geometry">
            <mxPoint x="750" y="410" as="sourcePoint" />
            <mxPoint x="750" y="490" as="targetPoint" />
            <Array as="points">
              <mxPoint x="720" y="360" />
            </Array>
          </mxGeometry>
        </mxCell>
        <mxCell id="XTBzalapVHw_kVNB5Hhz-16" value="[Нет]" style="text;html=1;align=center;verticalAlign=middle;whiteSpace=wrap;rounded=0;" vertex="1" parent="1">
          <mxGeometry x="600" y="330" width="190" height="30" as="geometry" />
        </mxCell>
        <mxCell id="XTBzalapVHw_kVNB5Hhz-17" value="Сообщение об ошибочности данных" style="rounded=1;whiteSpace=wrap;html=1;" vertex="1" parent="1">
          <mxGeometry x="655" y="400" width="120" height="60" as="geometry" />
        </mxCell>
        <mxCell id="XTBzalapVHw_kVNB5Hhz-18" value="Создание новой связи между персонами" style="rounded=1;whiteSpace=wrap;html=1;" vertex="1" parent="1">
          <mxGeometry x="750" y="710" width="120" height="60" as="geometry" />
        </mxCell>
        <mxCell id="XTBzalapVHw_kVNB5Hhz-19" value="Уведомление пользователя" style="rounded=1;whiteSpace=wrap;html=1;" vertex="1" parent="1">
          <mxGeometry x="750" y="790" width="120" height="60" as="geometry" />
        </mxCell>
        <mxCell id="XTBzalapVHw_kVNB5Hhz-20" value="" style="endArrow=open;endFill=1;endSize=12;html=1;rounded=0;exitX=0.5;exitY=1;exitDx=0;exitDy=0;entryX=0.5;entryY=0;entryDx=0;entryDy=0;" edge="1" parent="1" source="XTBzalapVHw_kVNB5Hhz-18" target="XTBzalapVHw_kVNB5Hhz-19">
          <mxGeometry width="160" relative="1" as="geometry">
            <mxPoint x="595" y="770" as="sourcePoint" />
            <mxPoint x="595" y="850" as="targetPoint" />
          </mxGeometry>
        </mxCell>
        <mxCell id="XTBzalapVHw_kVNB5Hhz-22" value="" style="endArrow=open;endFill=1;endSize=12;html=1;rounded=0;exitX=1;exitY=0.5;exitDx=0;exitDy=0;entryX=1;entryY=0.5;entryDx=0;entryDy=0;" edge="1" parent="1" source="XTBzalapVHw_kVNB5Hhz-17" target="XTBzalapVHw_kVNB5Hhz-8">
          <mxGeometry width="160" relative="1" as="geometry">
            <mxPoint x="725" y="330" as="sourcePoint" />
            <mxPoint x="715" y="490" as="targetPoint" />
            <Array as="points">
              <mxPoint x="790" y="430" />
              <mxPoint x="790" y="260" />
            </Array>
          </mxGeometry>
        </mxCell>
        <mxCell id="XTBzalapVHw_kVNB5Hhz-23" value="" style="ellipse;html=1;shape=endState;fillColor=#000000;strokeColor=default;" vertex="1" parent="1">
          <mxGeometry x="795" y="880" width="30" height="30" as="geometry" />
        </mxCell>
        <mxCell id="XTBzalapVHw_kVNB5Hhz-24" value="" style="endArrow=open;endFill=1;endSize=12;html=1;rounded=0;entryX=0.5;entryY=0;entryDx=0;entryDy=0;" edge="1" parent="1">
          <mxGeometry width="160" relative="1" as="geometry">
            <mxPoint x="810" y="850" as="sourcePoint" />
            <mxPoint x="810" y="880" as="targetPoint" />
          </mxGeometry>
        </mxCell>
        <mxCell id="XTBzalapVHw_kVNB5Hhz-25" value="Вводит данные о 2 персоне" style="rounded=1;whiteSpace=wrap;html=1;" vertex="1" parent="1">
          <mxGeometry x="230" y="410" width="120" height="60" as="geometry" />
        </mxCell>
        <mxCell id="XTBzalapVHw_kVNB5Hhz-32" value="" style="endArrow=open;endFill=1;endSize=12;html=1;rounded=0;entryX=0;entryY=0.5;entryDx=0;entryDy=0;" edge="1" parent="1">
          <mxGeometry width="160" relative="1" as="geometry">
            <mxPoint x="350" y="470" as="sourcePoint" />
            <mxPoint x="500" y="530" as="targetPoint" />
          </mxGeometry>
        </mxCell>
        <mxCell id="XTBzalapVHw_kVNB5Hhz-33" value="" style="endArrow=open;endFill=1;endSize=12;html=1;rounded=0;exitX=0.5;exitY=1;exitDx=0;exitDy=0;entryX=1;entryY=0.5;entryDx=0;entryDy=0;" edge="1" parent="1">
          <mxGeometry width="160" relative="1" as="geometry">
            <mxPoint x="540" y="570" as="sourcePoint" />
            <mxPoint x="330" y="610" as="targetPoint" />
            <Array as="points">
              <mxPoint x="540" y="610" />
              <mxPoint x="430" y="610" />
            </Array>
          </mxGeometry>
        </mxCell>
        <mxCell id="XTBzalapVHw_kVNB5Hhz-34" value="[Все данные указаны корректно]" style="text;html=1;align=center;verticalAlign=middle;whiteSpace=wrap;rounded=0;" vertex="1" parent="1">
          <mxGeometry x="400" y="610" width="190" height="30" as="geometry" />
        </mxCell>
        <mxCell id="XTBzalapVHw_kVNB5Hhz-35" value="" style="endArrow=open;endFill=1;endSize=12;html=1;rounded=0;exitX=1;exitY=0.5;exitDx=0;exitDy=0;entryX=0.558;entryY=-0.017;entryDx=0;entryDy=0;entryPerimeter=0;" edge="1" parent="1" target="XTBzalapVHw_kVNB5Hhz-37">
          <mxGeometry width="160" relative="1" as="geometry">
            <mxPoint x="580" y="530" as="sourcePoint" />
            <mxPoint x="730" y="660" as="targetPoint" />
            <Array as="points">
              <mxPoint x="700" y="530" />
            </Array>
          </mxGeometry>
        </mxCell>
        <mxCell id="XTBzalapVHw_kVNB5Hhz-36" value="[Нет]" style="text;html=1;align=center;verticalAlign=middle;whiteSpace=wrap;rounded=0;" vertex="1" parent="1">
          <mxGeometry x="580" y="500" width="190" height="30" as="geometry" />
        </mxCell>
        <mxCell id="XTBzalapVHw_kVNB5Hhz-37" value="Сообщение об ошибочности данных" style="rounded=1;whiteSpace=wrap;html=1;" vertex="1" parent="1">
          <mxGeometry x="635" y="570" width="120" height="60" as="geometry" />
        </mxCell>
        <mxCell id="XTBzalapVHw_kVNB5Hhz-38" value="" style="rhombus;whiteSpace=wrap;html=1;" vertex="1" parent="1">
          <mxGeometry x="500" y="490" width="80" height="80" as="geometry" />
        </mxCell>
        <mxCell id="XTBzalapVHw_kVNB5Hhz-39" value="" style="endArrow=open;endFill=1;endSize=12;html=1;rounded=0;exitX=1;exitY=0.65;exitDx=0;exitDy=0;entryX=1.008;entryY=0.867;entryDx=0;entryDy=0;exitPerimeter=0;entryPerimeter=0;startArrow=none;startFill=0;jumpStyle=arc;" edge="1" parent="1" source="XTBzalapVHw_kVNB5Hhz-37" target="XTBzalapVHw_kVNB5Hhz-8">
          <mxGeometry width="160" relative="1" as="geometry">
            <mxPoint x="785" y="440" as="sourcePoint" />
            <mxPoint x="610" y="270" as="targetPoint" />
            <Array as="points">
              <mxPoint x="800" y="610" />
              <mxPoint x="800" y="280" />
            </Array>
          </mxGeometry>
        </mxCell>
        <mxCell id="XTBzalapVHw_kVNB5Hhz-40" value="Указывает тип связи" style="rounded=1;whiteSpace=wrap;html=1;" vertex="1" parent="1">
          <mxGeometry x="210" y="580" width="120" height="60" as="geometry" />
        </mxCell>
        <mxCell id="XTBzalapVHw_kVNB5Hhz-41" value="" style="endArrow=open;endFill=1;endSize=12;html=1;rounded=0;exitX=0.5;exitY=1;exitDx=0;exitDy=0;entryX=0.535;entryY=-0.021;entryDx=0;entryDy=0;entryPerimeter=0;" edge="1" parent="1" target="XTBzalapVHw_kVNB5Hhz-43" source="XTBzalapVHw_kVNB5Hhz-44">
          <mxGeometry width="160" relative="1" as="geometry">
            <mxPoint x="570" y="690" as="sourcePoint" />
            <mxPoint x="720" y="820" as="targetPoint" />
            <Array as="points" />
          </mxGeometry>
        </mxCell>
        <mxCell id="XTBzalapVHw_kVNB5Hhz-42" value="[Нет]" style="text;html=1;align=center;verticalAlign=middle;whiteSpace=wrap;rounded=0;" vertex="1" parent="1">
          <mxGeometry x="400" y="720" width="190" height="30" as="geometry" />
        </mxCell>
        <mxCell id="XTBzalapVHw_kVNB5Hhz-43" value="Сообщение об ошибочности данных" style="rounded=1;whiteSpace=wrap;html=1;" vertex="1" parent="1">
          <mxGeometry x="455" y="760" width="120" height="60" as="geometry" />
        </mxCell>
        <mxCell id="XTBzalapVHw_kVNB5Hhz-44" value="" style="rhombus;whiteSpace=wrap;html=1;" vertex="1" parent="1">
          <mxGeometry x="480" y="640" width="80" height="80" as="geometry" />
        </mxCell>
        <mxCell id="XTBzalapVHw_kVNB5Hhz-47" value="" style="endArrow=open;endFill=1;endSize=12;html=1;rounded=0;exitX=1;exitY=0.75;exitDx=0;exitDy=0;entryX=0;entryY=0.5;entryDx=0;entryDy=0;" edge="1" parent="1" source="XTBzalapVHw_kVNB5Hhz-40" target="XTBzalapVHw_kVNB5Hhz-44">
          <mxGeometry width="160" relative="1" as="geometry">
            <mxPoint x="240" y="750" as="sourcePoint" />
            <mxPoint x="400" y="750" as="targetPoint" />
          </mxGeometry>
        </mxCell>
        <mxCell id="XTBzalapVHw_kVNB5Hhz-49" value="" style="endArrow=open;endFill=1;endSize=12;html=1;rounded=0;exitX=1;exitY=0.5;exitDx=0;exitDy=0;entryX=0.5;entryY=0;entryDx=0;entryDy=0;" edge="1" parent="1" source="XTBzalapVHw_kVNB5Hhz-44" target="XTBzalapVHw_kVNB5Hhz-18">
          <mxGeometry width="160" relative="1" as="geometry">
            <mxPoint x="340" y="635" as="sourcePoint" />
            <mxPoint x="810" y="750" as="targetPoint" />
            <Array as="points">
              <mxPoint x="810" y="680" />
            </Array>
          </mxGeometry>
        </mxCell>
        <mxCell id="XTBzalapVHw_kVNB5Hhz-50" value="[Тип связи не противоречит полу персон]" style="text;html=1;align=center;verticalAlign=middle;whiteSpace=wrap;rounded=0;" vertex="1" parent="1">
          <mxGeometry x="560" y="650" width="250" height="30" as="geometry" />
        </mxCell>
        <mxCell id="XTBzalapVHw_kVNB5Hhz-58" value="" style="endArrow=open;endFill=1;endSize=12;html=1;rounded=0;exitX=0.113;exitY=-0.016;exitDx=0;exitDy=0;exitPerimeter=0;" edge="1" parent="1" source="XTBzalapVHw_kVNB5Hhz-43">
          <mxGeometry width="160" relative="1" as="geometry">
            <mxPoint x="520" y="820" as="sourcePoint" />
            <mxPoint x="330" y="630" as="targetPoint" />
          </mxGeometry>
        </mxCell>
      </root>
    </mxGraphModel>
  </diagram>
</mxfile>
